HIERARCHY
ROOT Hips
{
	OFFSET 0.00000 0.00000 0.00000
	CHANNELS 6 Xposition Yposition Zposition Zrotation Yrotation Xrotation 
	JOINT LHipJoint
	{
		OFFSET 0 0 0
		CHANNELS 3 Zrotation Yrotation Xrotation
		JOINT LeftUpLeg
		{
			OFFSET 1.92384 -1.64427 0.83032
			CHANNELS 3 Zrotation Yrotation Xrotation
			JOINT LeftLeg
			{
				OFFSET 2.52872 -6.94761 0.00000
				CHANNELS 3 Zrotation Yrotation Xrotation
				JOINT LeftFoot
				{
					OFFSET 2.51827 -6.91890 0.00000
					CHANNELS 3 Zrotation Yrotation Xrotation
					JOINT LeftToeBase
					{
						OFFSET 0.22757 -0.62524 2.06528
						CHANNELS 3 Zrotation Yrotation Xrotation
						End Site
						{
							OFFSET 0.00000 -0.00000 1.08218
						}
					}
				}
			}
		}
	}
	JOINT RHipJoint
	{
		OFFSET 0 0 0
		CHANNELS 3 Zrotation Yrotation Xrotation
		JOINT RightUpLeg
		{
			OFFSET -2.09517 -1.64427 0.83032
			CHANNELS 3 Zrotation Yrotation Xrotation
			JOINT RightLeg
			{
				OFFSET -2.55173 -7.01082 0.00000
				CHANNELS 3 Zrotation Yrotation Xrotation
				JOINT RightFoot
				{
					OFFSET -2.50265 -6.87598 0.00000
					CHANNELS 3 Zrotation Yrotation Xrotation
					JOINT RightToeBase
					{
						OFFSET -0.22612 -0.62126 1.98677
						CHANNELS 3 Zrotation Yrotation Xrotation
						End Site
						{
							OFFSET -0.00000 -0.00000 1.04433
						}
					}
				}
			}
		}
	}
	JOINT LowerBack
	{
		OFFSET 0 0 0
		CHANNELS 3 Zrotation Yrotation Xrotation
		JOINT Spine
		{
			OFFSET 0.02839 1.68926 0.31690
			CHANNELS 3 Zrotation Yrotation Xrotation
			JOINT Spine1
			{
				OFFSET -0.01522 1.70183 0.21192
				CHANNELS 3 Zrotation Yrotation Xrotation
				JOINT Neck
				{
					OFFSET 0 0 0
					CHANNELS 3 Zrotation Yrotation Xrotation
					JOINT Neck1
					{
						OFFSET -0.04523 1.88988 0.10630
						CHANNELS 3 Zrotation Yrotation Xrotation
						JOINT Head
						{
							OFFSET 0.05172 1.78070 -0.56858
							CHANNELS 3 Zrotation Yrotation Xrotation
							End Site
							{
								OFFSET 0.01532 1.90392 -0.20434
							}
						}
					}
				}
				JOINT LeftShoulder
				{
					OFFSET 0 0 0
					CHANNELS 3 Zrotation Yrotation Xrotation
					JOINT LeftArm
					{
						OFFSET 3.25522 0.75486 0.22086
						CHANNELS 3 Zrotation Yrotation Xrotation
						JOINT LeftForeArm
						{
							OFFSET 4.85645 -0.00000 0.00000
							CHANNELS 3 Zrotation Yrotation Xrotation
							JOINT LeftHand
							{
								OFFSET 2.79874 -0.00000 0.00000
								CHANNELS 3 Zrotation Yrotation Xrotation
								JOINT LeftFingerBase
								{
									OFFSET 0 0 0
									CHANNELS 3 Zrotation Yrotation Xrotation
									JOINT LeftHandIndex1
									{
										OFFSET 0.57340 -0.00000 0.00000
										CHANNELS 3 Zrotation Yrotation Xrotation
										End Site
										{
											OFFSET 0.46229 -0.00000 0.00000
										}
									}
								}
								JOINT LThumb
								{
									OFFSET 0 0 0
									CHANNELS 3 Zrotation Yrotation Xrotation
									End Site
									{
										OFFSET 0.46935 -0.00000 0.46935
									}
								}
							}
						}
					}
				}
				JOINT RightShoulder
				{
					OFFSET 0 0 0
					CHANNELS 3 Zrotation Yrotation Xrotation
					JOINT RightArm
					{
						OFFSET -3.29079 0.52751 0.36356
						CHANNELS 3 Zrotation Yrotation Xrotation
						JOINT RightForeArm
						{
							OFFSET -4.67018 -0.00000 0.00000
							CHANNELS 3 Zrotation Yrotation Xrotation
							JOINT RightHand
							{
								OFFSET -2.65534 -0.00000 0.00000
								CHANNELS 3 Zrotation Yrotation Xrotation
								JOINT RightFingerBase
								{
									OFFSET 0 0 0
									CHANNELS 3 Zrotation Yrotation Xrotation
									JOINT RightHandIndex1
									{
										OFFSET -0.59407 -0.00000 0.00000
										CHANNELS 3 Zrotation Yrotation Xrotation
										End Site
										{
											OFFSET -0.47895 -0.00000 0.00000
										}
									}
								}
								JOINT RThumb
								{
									OFFSET 0 0 0
									CHANNELS 3 Zrotation Yrotation Xrotation
									End Site
									{
										OFFSET -0.48627 -0.00000 0.48627
									}
								}
							}
						}
					}
				}
			}
		}
	}
}
MOTION
Frames: 11
Frame Time: .0083333
5.2454 16.416 37.6987 0 0 0 0 0 0 -21 0 0 0 0 0 0 0 0 0 0 0 0 0 0 21 0 0 0 0 0 0 0 0 0 0 0 0 0 0 0 0 0 0 0 0 0 0 -16 0 0 21 0 0 11 0 0 0 -8 0 0 0 0 0 0 0 0 0 0 0 0 0 0 0 0 0 0 0 0 8 0 0 0 0 0 0 0 0 0 0 0 0 0 0 0 0 0
5.2454 16.4160 37.6987 175.1400 1.9445 -139.9160 0.0000 0.0000 0.0000 -11.1116 -30.6868 -57.9812 3.5552 11.5437 34.1362 0.4904 3.9724 -15.2808 0.4031 -4.0762 -11.2911 0.0000 0.0000 0.0000 8.6733 15.1080 -66.2688 -15.5749 -19.5239 76.9624 0.0945 -7.9285 -9.0303 -0.0120 0.7069 -1.9425 -1.4416 -5.2577 -22.8586 1.4371 -1.3667 -18.2901 1.8484 1.9305 -7.5455 -2.7712 -5.4176 -14.8405 -2.3833 -1.3565 41.7621 -0.3080 0.4295 18.1428 -0.0000 0.0000 0.0000 -86.3636 17.0999 37.7171 23.6119 -34.7511 -7.4842 -0.0000 -0.0000 5.1738 6.1548 25.2398 2.6327 -7.1250 0.0000 -0.0000 -24.3833 53.6416 -5.4326 -0.0000 0.0000 0.0000 79.9373 -26.0581 34.2298 -18.0320 28.1982 -4.5644 0.0000 0.0000 9.1747 -13.5305 -16.4874 3.9070 7.1250 -0.0000 -0.0000 13.4814 -46.4581 -0.4939
5.2320 16.4125 37.5935 175.2400 2.1031 -139.7900 0.0000 0.0000 0.0000 -11.1754 -30.6556 -57.8191 3.6101 11.6226 34.4097 0.5235 4.1400 -15.8091 0.4037 -4.0793 -11.2997 0.0000 0.0000 0.0000 8.3801 15.4499 -67.4964 -15.5258 -19.5131 76.8156 0.0567 -7.5521 -9.4157 -0.0205 0.9241 -2.5399 -1.2584 -5.2066 -22.9747 1.4720 -1.3252 -18.2891 1.7913 1.9351 -7.4977 -2.7451 -5.3942 -14.8378 -2.3704 -1.2922 41.8787 -0.2915 0.4718 18.2121 -0.0000 -0.0000 0.0000 -86.2009 16.6401 38.2304 23.7774 -34.9280 -7.5787 -0.0000 -0.0000 5.0039 6.3168 25.3998 2.7185 -7.1250 0.0000 -0.0000 -24.3264 53.8159 -5.5255 -0.0000 -0.0000 0.0000 79.8872 -26.2292 33.9677 -18.0449 28.2146 -4.5704 0.0000 0.0000 8.9242 -13.2347 -16.4971 3.8208 7.1250 -0.0000 -0.0000 13.7551 -46.4296 -0.4945
5.2203 16.4114 37.4866 175.3310 2.2557 -139.7430 0.0000 0.0000 0.0000 -11.3751 -30.5349 -57.4418 3.6328 11.6551 34.5224 0.5595 4.1787 -16.2726 0.3925 -4.0227 -11.1406 0.0000 0.0000 0.0000 8.1379 15.7678 -68.5349 -15.3725 -19.4787 76.3562 0.0218 -7.1485 -9.6741 -0.0316 1.1482 -3.1566 -1.0909 -5.1065 -23.0295 1.4330 -1.2398 -18.2516 1.6709 1.9481 -7.4377 -2.6523 -5.3897 -14.9408 -2.3381 -1.2907 42.0257 -0.2914 0.5008 18.3261 0.0000 -0.0000 0.0000 -85.9623 16.1146 38.7021 23.8778 -35.0348 -7.6363 -0.0000 -0.0000 4.9245 6.6950 25.2365 2.8651 -7.1250 0.0000 -0.0000 -23.8637 53.7359 -5.3626 0.0000 -0.0000 0.0000 80.0085 -26.3386 33.5132 -18.0061 28.1650 -4.5521 0.0000 0.0000 8.9025 -13.1599 -16.4491 3.7878 7.1250 -0.0000 -0.0000 13.8081 -46.3726 -0.4767
5.2164 16.4222 37.3702 175.2490 2.2042 -139.9900 0.0000 0.0000 0.0000 -12.0345 -30.2994 -56.6461 3.6609 11.6949 34.6611 0.6205 3.8885 -16.8011 0.3989 -4.0550 -11.2314 0.0000 0.0000 0.0000 7.8918 15.9295 -69.0966 -15.1586 -19.4285 75.7139 -0.0483 -6.5012 -10.4114 -0.0526 1.4795 -4.0693 -1.1852 -5.1869 -22.9525 1.5037 -1.3945 -18.1415 1.7829 1.8538 -7.3277 -2.7286 -5.3928 -14.8830 -2.2983 -1.2533 42.1088 -0.2489 0.5176 18.3646 0.0000 0.0000 0.0000 -85.9309 15.7222 38.8514 23.9991 -35.1633 -7.7060 -0.0000 -0.0000 4.8793 7.1395 25.2116 3.0541 -7.1250 0.0000 -0.0000 -23.4218 53.7938 -5.2884 0.0000 0.0000 0.0000 79.9145 -26.4332 33.2517 -17.9161 28.0497 -4.5097 0.0000 0.0000 8.9612 -13.1765 -16.1795 3.7324 7.1250 -0.0000 -0.0000 13.7073 -46.1082 -0.3820
5.2087 16.4202 37.2610 175.2920 2.3100 -139.9810 0.0000 0.0000 0.0000 -12.3660 -30.0959 -56.2558 3.6950 11.7431 34.8291 0.6691 3.7904 -17.2898 0.3999 -4.0602 -11.2460 0.0000 0.0000 0.0000 7.5801 16.2698 -69.9953 -14.9214 -19.3700 74.9998 -0.0946 -5.9870 -10.7712 -0.0675 1.6762 -4.6117 -1.1350 -5.1662 -23.0049 1.5332 -1.3919 -18.1052 1.7898 1.8430 -7.2600 -2.7309 -5.3911 -14.8888 -2.2572 -1.2305 42.2161 -0.2222 0.5412 18.4326 -0.0000 0.0000 0.0000 -85.8047 15.2668 39.1385 24.1271 -35.2984 -7.7799 -0.0000 -0.0000 4.7734 7.2715 25.4476 3.1382 -7.1250 0.0000 -0.0000 -23.4380 54.0335 -5.4333 -0.0000 0.0000 0.0000 79.9132 -26.5505 32.9346 -17.8884 28.0140 -4.4967 0.0000 0.0000 8.9129 -13.1284 -16.1948 3.7218 7.1250 -0.0000 -0.0000 13.7560 -46.1173 -0.3866
5.2020 16.4165 37.1520 175.3460 2.4297 -139.9460 0.0000 0.0000 0.0000 -12.6680 -29.8824 -55.9101 3.7305 11.7929 35.0034 0.7195 3.6867 -17.7783 0.3989 -4.0550 -11.2315 0.0000 0.0000 0.0000 7.2404 16.6490 -70.8727 -14.6259 -19.2930 74.1071 -0.1376 -5.4772 -11.0742 -0.0826 1.8542 -5.1029 -1.0891 -5.1438 -23.0703 1.5682 -1.3797 -18.0799 1.8060 1.8412 -7.1995 -2.7268 -5.3827 -14.8819 -2.2202 -1.2002 42.3094 -0.1968 0.5680 18.4885 0.0000 0.0000 0.0000 -85.6922 14.8166 39.3722 24.2594 -35.4373 -7.8564 -0.0000 -0.0000 4.6393 7.3128 25.8129 3.1983 -7.1250 0.0000 -0.0000 -23.6237 54.3746 -5.6821 0.0000 0.0000 0.0000 79.9084 -26.6640 32.6402 -17.8735 27.9949 -4.4897 0.0000 0.0000 8.8566 -13.1105 -16.2567 3.7303 7.1250 -0.0000 -0.0000 13.7919 -46.1761 -0.4080
5.1960 16.4109 37.0427 175.4110 2.5506 -139.9040 0.0000 0.0000 0.0000 -12.9210 -29.6906 -55.6076 3.7797 11.8614 35.2434 0.7733 3.6141 -18.3046 0.3978 -4.0497 -11.2165 0.0000 0.0000 0.0000 6.8877 17.0489 -71.7084 -14.2855 -19.1984 73.0746 -0.1774 -4.9956 -11.3520 -0.0965 2.0037 -5.5159 -1.0371 -5.1228 -23.1239 1.6127 -1.3679 -18.0634 1.8286 1.8405 -7.1557 -2.7115 -5.3628 -14.8650 -2.1972 -1.1535 42.3865 -0.1771 0.6001 18.5314 0.0000 0.0000 0.0000 -85.5993 14.3734 39.5528 24.3998 -35.5842 -7.9380 -0.0000 -0.0000 4.4562 7.3553 26.2152 3.2636 -7.1250 0.0000 -0.0000 -23.8364 54.7492 -5.9610 0.0000 0.0000 0.0000 79.8899 -26.7749 32.3777 -17.8786 28.0014 -4.4921 0.0000 0.0000 8.7723 -13.0850 -16.3511 3.7438 7.1250 -0.0000 -0.0000 13.8451 -46.2662 -0.4410
5.1907 16.4036 36.9332 175.4980 2.6810 -139.8450 0.0000 0.0000 0.0000 -13.1096 -29.5271 -55.3250 3.8293 11.9297 35.4836 0.8256 3.5985 -18.8324 0.3960 -4.0403 -11.1900 0.0000 0.0000 0.0000 6.5272 17.4770 -72.5017 -13.8884 -19.0798 71.8633 -0.2116 -4.5743 -11.5893 -0.1101 2.1392 -5.8905 -0.9649 -5.0895 -23.1629 1.6562 -1.3405 -18.0573 1.8409 1.8474 -7.1334 -2.6754 -5.3387 -14.8564 -2.1893 -1.1054 42.4525 -0.1684 0.6328 18.5691 0.0000 0.0000 0.0000 -85.5080 13.9281 39.7088 24.5375 -35.7276 -8.0183 -0.0000 -0.0000 4.2332 7.4333 26.5777 3.3407 -7.1250 0.0000 -0.0000 -23.9942 55.0938 -6.2104 0.0000 0.0000 0.0000 79.8783 -26.8791 32.1312 -17.9085 28.0399 -4.5061 0.0000 0.0000 8.6460 -13.0414 -16.4940 3.7625 7.1250 -0.0000 -0.0000 13.9308 -46.4018 -0.4913
5.1864 16.3979 36.8218 175.5750 2.7777 -139.8310 0.0000 0.0000 0.0000 -13.2947 -29.4072 -54.9534 3.8729 11.9893 35.6942 0.8766 3.6292 -19.3570 0.3959 -4.0398 -11.1886 0.0000 0.0000 0.0000 6.1838 17.8800 -73.1562 -13.4329 -18.9329 70.4648 -0.2395 -4.2476 -11.8023 -0.1199 2.2322 -6.1478 -0.8982 -5.0718 -23.1773 1.7107 -1.3408 -18.0395 1.8644 1.8380 -7.1070 -2.6402 -5.3011 -14.8278 -2.1903 -1.0366 42.4981 -0.1599 0.6712 18.5888 0.0000 -0.0000 0.0000 -85.4398 13.5033 39.8083 24.6650 -35.8596 -8.0928 -0.0000 -0.0000 4.0030 7.6446 26.8103 3.4644 -7.1250 0.0000 -0.0000 -23.9405 55.3460 -6.3456 0.0000 -0.0000 0.0000 79.8411 -26.9641 31.9234 -17.9292 28.0664 -4.5159 0.0000 0.0000 8.5401 -13.0096 -16.5374 3.7626 7.1250 -0.0000 -0.0000 13.9739 -46.4406 -0.5065
5.1831 16.3930 36.7089 175.6570 2.8661 -139.8340 0.0000 0.0000 0.0000 -13.4608 -29.3115 -54.5244 3.9073 12.0360 35.8595 0.9245 3.7083 -19.8650 0.3967 -4.0442 -11.2011 0.0000 0.0000 0.0000 5.8435 18.2882 -73.7063 -12.9205 -18.7533 68.8784 -0.2683 -3.9883 -12.0826 -0.1353 2.3708 -6.5316 -0.8256 -5.0492 -23.1604 1.7628 -1.3403 -18.0194 1.8823 1.8264 -7.0932 -2.5992 -5.2702 -14.8254 -2.2004 -0.9809 42.5430 -0.1601 0.7023 18.6150 -0.0000 -0.0000 0.0000 -85.3694 13.0830 39.8962 24.7769 -35.9751 -8.1585 -0.0000 -0.0000 3.7668 7.9751 26.8753 3.6238 -7.1250 0.0000 -0.0000 -23.6598 55.4692 -6.3374 -0.0000 -0.0000 0.0000 79.8078 -27.0377 31.7226 -17.9565 28.1015 -4.5288 0.0000 0.0000 8.4505 -12.9804 -16.5402 3.7545 7.1250 -0.0000 -0.0000 14.0014 -46.4397 -0.5072
